/vscmnt/brussel_pixiu_data/_data_brussel/112/vsc11236/PredSimResults/SUBJ07opt3D/weighted-LRposFixed/expIG/worker_05.mot
version=1
nRows=10
nColumns=50
inDegrees=yes
endheader
                time	         pelvis_tilt	         pelvis_list	     pelvis_rotation	           pelvis_tx	           pelvis_ty	           pelvis_tz	       hip_flexion_r	     hip_adduction_r	      hip_rotation_r	        knee_angle_r	       ankle_angle_r	         mtp_angle_r	       hip_flexion_l	     hip_adduction_l	      hip_rotation_l	        knee_angle_l	       ankle_angle_l	         mtp_angle_l	    lumbar_extension	      lumbar_bending	     lumbar_rotation	 ercspn_r/activation	 intobl_r/activation	 extobl_r/activation	    abd_r/activation	    add_r/activation	hamstrings_r/activation	bifemsh_r/activation	glut_max_r/activation	iliopsoas_r/activation	rect_fem_r/activation	  vasti_r/activation	gastroc_r/activation	 soleus_r/activation	tib_ant_r/activation	 ercspn_l/activation	 intobl_l/activation	 extobl_l/activation	    abd_l/activation	    add_l/activation	hamstrings_l/activation	bifemsh_l/activation	glut_max_l/activation	iliopsoas_l/activation	rect_fem_l/activation	  vasti_l/activation	gastroc_l/activation	 soleus_l/activation	tib_ant_l/activation	
          1.15263528	         -3.58310293	          0.00716574	          9.48428131	          1.30247787	          0.84997704	         -0.01551460	         30.05710768	         -2.82827578	         -5.89564797	         -8.80792328	          2.36791196	          0.26769959	        -14.00561915	          0.29825465	          5.10009747	         -8.81678958	          9.42767673	         27.62708031	        -11.64719121	         -1.76215585	         -1.43522050	          0.12330842	          0.12675273	          0.01000001	          0.01307638	          0.17757238	          0.07550204	          0.09531255	          0.09769222	          0.04382589	          0.01000011	          0.01000003	          0.01000000	          0.00999999	          0.41463571	          0.10147313	          0.01000000	          0.01000000	          0.03609178	          0.05142518	          0.01641558	          0.17439362	          0.02019630	          0.40078635	          0.01000018	          0.01000002	          0.18361960	          0.33623082	          0.01714631	
          1.16416164	         -3.58439285	          0.08517602	          9.49574496	          1.31844896	          0.84820164	         -0.01491589	         30.05414286	         -2.65061729	         -5.61677067	        -10.68492136	          2.05734317	          0.24518339	        -14.57371554	          0.22491112	          4.77690470	         -9.74856856	          8.61230692	         29.22031704	        -11.46597818	         -1.40561269	         -1.65138040	          0.10562133	          0.12080068	          0.01000000	          0.01096915	          0.18256439	          0.06540448	          0.07995344	          0.16002327	          0.03676342	          0.01000002	          0.01000000	          0.01421116	          0.01192105	          0.44204697	          0.12406618	          0.00999999	          0.01000000	          0.03027565	          0.08788317	          0.01377051	          0.15527856	          0.01694170	          0.43367198	          0.01000005	          0.01000000	          0.15402961	          0.31921649	          0.01438321	
          1.17568799	         -3.58007103	          0.17112469	          9.45664783	          1.33462764	          0.84664470	         -0.01425512	         29.89044077	         -2.50450786	         -5.26357051	        -12.35119873	          1.71643811	          0.23830835	        -14.96198835	          0.18233216	          4.41164499	        -11.03868619	          7.68217486	         30.81473811	        -11.27658575	         -1.05151438	         -1.86070948	          0.12479747	          0.10133386	          0.01000000	          0.06619652	          0.18348427	          0.06003429	          0.09174239	          0.17578395	          0.03083906	          0.01000000	          0.00999999	          0.01192106	          0.00999999	          0.51046048	          0.14244219	          0.00999999	          0.01000000	          0.02539678	          0.08117323	          0.01155173	          0.13499635	          0.01421158	          0.37973278	          0.01000004	          0.01000000	          0.12920799	          0.29708400	          0.01206538	
          1.18721434	         -3.57176975	          0.27227671	          9.36594413	          1.35082514	          0.84543610	         -0.01349773	         29.64065833	         -2.36926946	         -4.96454532	        -13.86279655	          1.35783987	          0.21948754	        -15.11934179	          0.17725426	          4.00701799	        -12.73895736	          6.58609715	         32.38710444	        -11.09819184	         -0.71235086	         -2.05774055	          0.14073853	          0.08500408	          0.01000000	          0.11986892	          0.18760527	          0.05253922	          0.07695827	          0.19989435	          0.02586939	          0.01000000	          0.00999999	          0.01000001	          0.00999999	          0.53126212	          0.17590970	          0.00999999	          0.01000000	          0.02130413	          0.07742497	          0.01166809	          0.11324237	          0.01192141	          0.31853950	          0.01000006	          0.01000000	          0.10838634	          0.27227931	          0.01012107	
          1.19874070	         -3.56022970	          0.38007494	          9.22836710	          1.36683960	          0.84472592	         -0.01265723	         29.40504661	         -2.24309188	         -4.72736136	        -15.42917049	          1.28066295	          0.19772256	        -14.99766442	          0.20120953	          3.56769987	        -14.89149340	          5.29373980	         33.84769014	        -10.94547325	         -0.37784743	         -2.23833047	          0.14572685	          0.07130581	          0.01000000	          0.16240796	          0.20074842	          0.04667221	          0.06455658	          0.21899522	          0.02170059	          0.01000001	          0.02590206	          0.01000000	          0.00999999	          0.52562810	          0.21534996	          0.00999999	          0.01000000	          0.01787100	          0.09155023	          0.01255379	          0.10161807	          0.01000029	          0.26720739	          0.01000002	          0.00999999	          0.09092006	          0.23185200	          0.00999999	
          1.21026705	         -3.54688628	          0.48753483	          9.04587510	          1.38250055	          0.84465291	         -0.01174469	         29.22353421	         -2.12097696	         -4.54702798	        -17.10009135	          1.55784117	          0.18209784	        -14.54848928	          0.24754815	          3.09477926	        -17.54610754	          3.82598572	         34.97669378	        -10.82858347	         -0.04241971	         -2.39928091	          0.15555359	          0.05981500	          0.01000000	          0.18549827	          0.21831790	          0.04546167	          0.05415341	          0.22799098	          0.01820357	          0.01000001	          0.05990845	          0.01000000	          0.00999999	          0.47052409	          0.24259573	          0.00999999	          0.01000000	          0.01499112	          0.12773003	          0.01316198	          0.09075578	          0.01000000	          0.22414737	          0.01000001	          0.00999999	          0.07626845	          0.19448944	          0.00999999	
          1.22179340	         -3.53329893	          0.59605120	          8.82098879	          1.39776414	          0.84526418	         -0.01078269	         29.03866641	         -1.99800389	         -4.40264541	        -18.75299988	          2.18035997	          0.20649704	        -13.74924402	          0.31469453	          2.59157870	        -20.72418355	          2.23405964	         35.47680712	        -10.74241201	          0.29044638	         -2.53925464	          0.15064463	          0.05017591	          0.01000000	          0.19574119	          0.22710553	          0.04586836	          0.04542669	          0.21873559	          0.01527010	          0.01000001	          0.11830402	          0.01000000	          0.00999999	          0.39469993	          0.25939360	          0.00999999	          0.01000000	          0.01257533	          0.16549020	          0.01370348	          0.07613079	          0.01000000	          0.18802640	          0.01000001	          0.00999999	          0.06397791	          0.16314779	          0.00999999	
          1.23331975	         -3.52227751	          0.70647284	          8.55537348	          1.41264337	          0.84655961	         -0.00978677	         28.73937797	         -1.86174471	         -4.25660635	        -20.16543173	          3.04119101	          0.31964312	        -12.59927403	          0.39716377	          2.08021782	        -24.39088357	          0.46633410	         35.21393423	        -10.67769527	          0.61610838	         -2.65773105	          0.12636853	          0.04209015	          0.01000000	          0.19419633	          0.22143786	          0.05191650	          0.03810627	          0.19126547	          0.01280935	          0.01000001	          0.15700648	          0.01000001	          0.01000000	          0.33109470	          0.25979288	          0.00999999	          0.01000000	          0.01054884	          0.18000143	          0.01256761	          0.06490118	          0.01000000	          0.15772626	          0.01000000	          0.00999999	          0.05366798	          0.13685680	          0.00999999	
          1.24484611	         -3.51698040	          0.82083379	          8.24944967	          1.42713794	          0.84846276	         -0.00875315	         28.25685275	         -1.70392077	         -4.07138246	        -21.17689626	          3.91704572	          0.52045706	        -11.12375877	          0.49147935	          1.59855588	        -28.42805311	         -1.62245547	         34.24176176	        -10.63306778	          0.92659122	         -2.75526673	          0.10600445	          0.03530739	          0.01000000	          0.18718055	          0.20391428	          0.06329734	          0.03196553	          0.16044336	          0.01074515	          0.01000000	          0.19627387	          0.01000000	          0.00999999	          0.27773936	          0.24809177	          0.00999999	          0.01000000	          0.01000000	          0.19274816	          0.02090641	          0.05825066	          0.01000001	          0.13230893	          0.01000000	          0.00999999	          0.04501947	          0.11480255	          0.00999999	
          1.25637246	         -3.51972717	          0.94059729	          7.90291283	          1.44123994	          0.85085310	         -0.00769709	         27.56550019	         -1.52693089	         -3.83578764	        -21.71757337	          4.67694592	          0.79646903	         -9.36815537	          0.60299494	          1.18113360	        -32.68703706	         -4.06780154	         32.51623061	        -10.61065202	          1.21917011	         -2.83017763	          0.08892201	          0.02961766	          0.01000000	          0.18440555	          0.17816770	          0.07501423	          0.02681435	          0.13458819	          0.01000000	          0.01000000	          0.21762376	          0.01000000	          0.00999999	          0.24359841	          0.24465677	          0.01000000	          0.01000000	          0.01000000	          0.18770703	          0.04110988	          0.05425458	          0.01754354	          0.11098757	          0.01000000	          0.00999999	          0.03776466	          0.09630231	          0.03095013	
